<?xml version="1.0" encoding="utf-8"?>
<!-- Generator: Adobe Illustrator 23.0.6, SVG Export Plug-In . SVG Version: 6.00 Build 0)  -->
<svg version="1.1" id="Layer_1" xmlns="http://www.w3.org/2000/svg" xmlns:xlink="http://www.w3.org/1999/xlink" x="0px" y="0px"
	 viewBox="0 0 122.82257 145.68933" style="enable-background:new 0 0 122.82257 145.68933;" xml:space="preserve">
<style type="text/css">
	.st0{fill:#FFFFFF;}
	.st1{fill:#48658A;}
	.st2{fill:#9D4C3D;}
	.st3{fill:#042F5F;}
	.st4{fill:#F26F21;}
</style>
<g>
	<path class="st0" d="M122.82166,9.41632c0-6.03644-1.91388-9.41632-8.02917-9.41632c0,0-22.93207,0.00006-30.57611,0.00006
		c-5.66901,0-7.78802,3.89893-8.00732,8.5791L76.1449,8.38995c0,0-0.00067,47.42535-0.00067,62.89166
		c0,2.45135-0.14148,4.73151-0.52356,6.78717c-0.65784,3.32941-1.98798,6.203-4.4809,8.15118
		c-0.04694,0.0354-0.09393,0.07074-0.14172,0.10547c-0.08649,0.06525-0.17609,0.12787-0.26526,0.19092
		c-2.18323,1.48462-5.19934,2.32623-9.32147,2.37268c-4.12213-0.04645-7.13831-0.88806-9.32153-2.37268
		c-0.08917-0.06305-0.17877-0.12567-0.26526-0.19092c-0.04779-0.03473-0.09479-0.07007-0.14172-0.10547
		c-2.49292-1.94818-3.82306-4.82178-4.4809-8.15118c-0.38208-2.05566-0.52356-4.33582-0.52356-6.78717l-0.04236,0.05316
		c0-0.01776-0.00043-0.0354-0.00043-0.05316c0-15.46619-0.00043-59.58527-0.00043-61.86523
		c0-5.04352-2.0246-9.41632-8.02893-9.41632C30.96216,0.00006,8.03003,0,8.03003,0c-6.1153,0-8.02911,3.37988-8.02911,9.41632
		c0,0-0.00092,58.02301-0.00092,81.52301c0,29.5,18.11627,54.75,60.61627,54.75c0.27179,0,0.526-0.01355,0.79504-0.01562
		c0.26904,0.00208,0.52319,0.01562,0.79498,0.01562c42.5,0,60.61627-25.25,60.61627-54.75
		C122.82257,67.43933,122.82166,9.41632,122.82166,9.41632z"/>
	<path id="Rounded_Rectangle_1-2_1_" class="st1" d="M72.09448,119.96503h5.27666c2.98177,0,5.39896,2.41719,5.39896,5.39896
		v5.28423c0,2.98177-2.4172,5.39896-5.39896,5.39896h-5.27666c-2.98177,0-5.39896-2.41719-5.39896-5.39896v-5.28423
		C66.69551,122.38223,69.11271,119.96503,72.09448,119.96503z"/>
	<path id="Rounded_Rectangle_1-3_1_" class="st2" d="M104.21827,54.28671h5.27235c2.98176,0,5.39896,2.41719,5.39896,5.39896
		v5.28559c0,2.98177-2.4172,5.39896-5.39896,5.39896h-5.27235c-2.98176,0-5.39896-2.41719-5.39896-5.39896v-5.28559
		C98.81931,56.7039,101.23651,54.28671,104.21827,54.28671z"/>
	<path id="Rounded_Rectangle_1-4_1_" class="st3" d="M30.82619,113.82371h5.27235c2.98176,0,5.39896,2.41719,5.39896,5.39897
		v5.28423c0,2.98177-2.41719,5.39896-5.39896,5.39896h-5.27235c-2.98176,0-5.39896-2.4172-5.39896-5.39896v-5.28423
		C25.42723,116.2409,27.84443,113.82371,30.82619,113.82371z"/>
	<path id="Rounded_Rectangle_1-5_1_" class="st2" d="M29.94467,9.08772h5.27235c2.98176,0,5.39896,2.4172,5.39896,5.39896v5.28504
		c0,2.98176-2.41719,5.39896-5.39896,5.39896h-5.27235c-2.98176,0-5.39896-2.4172-5.39896-5.39896v-5.28504
		C24.54572,11.5049,26.96291,9.08772,29.94467,9.08772z"/>
	<path id="Rounded_Rectangle_1-6_1_" class="st1" d="M18.6321,99.68114h5.27667c2.98176,0,5.39896,2.41719,5.39896,5.39896v5.28423
		c0,2.98177-2.4172,5.39896-5.39896,5.39896H18.6321c-2.98176,0-5.39896-2.41719-5.39896-5.39896v-5.28423
		C13.23314,102.09834,15.65034,99.68114,18.6321,99.68114z"/>
	<path id="Rounded_Rectangle_1-7_1_" class="st1" d="M65.76338,94.88012h5.27235c2.98176,0,5.39896,2.41719,5.39896,5.39896v5.2856
		c0,2.98177-2.4172,5.39896-5.39896,5.39896h-5.27235c-2.98176,0-5.39896-2.41719-5.39896-5.39896v-5.2856
		C60.36443,97.29731,62.78162,94.88012,65.76338,94.88012z"/>
	<path id="Rounded_Rectangle_1-8_1_" class="st3" d="M28.95342,66.70431h5.27235c2.98177,0,5.39896,2.41719,5.39896,5.39896v5.2856
		c0,2.98177-2.41719,5.39896-5.39896,5.39896h-5.27235c-2.98176,0-5.39896-2.41719-5.39896-5.39896v-5.2856
		C23.55447,69.1215,25.97166,66.70431,28.95342,66.70431z"/>
	<path id="Rounded_Rectangle_1-9_1_" class="st3" d="M88.18161,40.24537h5.27249c2.98176,0,5.39896,2.41719,5.39896,5.39896v5.28558
		c0,2.98177-2.4172,5.39896-5.39896,5.39896h-5.27249c-2.98176,0-5.39896-2.41719-5.39896-5.39896v-5.28558
		C82.78265,42.66256,85.19985,40.24537,88.18161,40.24537z"/>
	<path id="Rounded_Rectangle_1-10_1_" class="st3" d="M18.21881,15.24159h5.27235c2.98176,0,5.39896,2.4172,5.39896,5.39896v5.28517
		c0,2.98176-2.4172,5.39896-5.39896,5.39896h-5.27235c-2.98176,0-5.39896-2.4172-5.39896-5.39896v-5.28517
		C12.81985,17.65878,15.23705,15.24159,18.21881,15.24159z"/>
	<path id="Rounded_Rectangle_1-11_1_" class="st3" d="M30.77139,27.11928h5.27235c2.98177,0,5.39896,2.4172,5.39896,5.39896v5.28543
		c0,2.98177-2.41719,5.39896-5.39896,5.39896h-5.27235c-2.98176,0-5.39896-2.41719-5.39896-5.39896v-5.28543
		C25.37243,29.53649,27.78963,27.11928,30.77139,27.11928z"/>
	<path id="Rounded_Rectangle_1-12_1_" class="st2" d="M80.18441,91.20612h5.27666c2.98176,0,5.39896,2.41719,5.39896,5.39896
		v5.28558c0,2.98177-2.41721,5.39896-5.39896,5.39896h-5.27666c-2.98177,0-5.39896-2.41719-5.39896-5.39896v-5.28558
		C74.78545,93.62331,77.20264,91.20612,80.18441,91.20612z"/>
	<path id="Rounded_Rectangle_1-13_1_" class="st2" d="M52.2448,96.20016h5.27667c2.98177,0,5.39896,2.41719,5.39896,5.39896v5.28558
		c0,2.98177-2.41719,5.39896-5.39896,5.39896H52.2448c-2.98177,0-5.39896-2.41719-5.39896-5.39896v-5.28558
		C46.84584,98.61735,49.26304,96.20016,52.2448,96.20016z"/>
	<path id="Rounded_Rectangle_1-14_1_" class="st3" d="M58.53378,119.92182h5.27667c2.98176,0,5.39896,2.41719,5.39896,5.39897
		v5.28559c0,2.98177-2.4172,5.39896-5.39896,5.39896h-5.27667c-2.98177,0-5.39896-2.41719-5.39896-5.39896v-5.28559
		C53.13482,122.33901,55.55201,119.92182,58.53378,119.92182z"/>
	<path id="Rounded_Rectangle_1-15_1_" class="st3" d="M44.18442,117.98225h5.27235c2.98177,0,5.39896,2.41719,5.39896,5.39897
		v5.28559c0,2.98177-2.41719,5.39896-5.39896,5.39896h-5.27235c-2.98176,0-5.39896-2.41719-5.39896-5.39896v-5.28559
		C38.78547,120.39944,41.20266,117.98225,44.18442,117.98225z"/>
	<path id="Rounded_Rectangle_1-16_1_" class="st3" d="M94.23857,102.89486h5.27666c2.98177,0,5.39896,2.41719,5.39896,5.39896
		v5.28424c0,2.98177-2.4172,5.39896-5.39896,5.39896h-5.27666c-2.98176,0-5.39896-2.41719-5.39896-5.39896v-5.28424
		C88.83961,105.31205,91.25681,102.89486,94.23857,102.89486z"/>
	<path id="Rounded_Rectangle_1-17_1_" class="st3" d="M26.39311,105.77927h5.27249c2.98176,0,5.39896,2.41719,5.39896,5.39896
		v5.28558c0,2.98177-2.41719,5.39896-5.39896,5.39896h-5.27249c-2.98176,0-5.39896-2.41719-5.39896-5.39896v-5.28558
		C20.99415,108.19646,23.41134,105.77927,26.39311,105.77927z"/>
	<path id="Rounded_Rectangle_1-18_1_" class="st3" d="M28.83951,84.58836H34.112c2.98177,0,5.39896,2.41719,5.39896,5.39896v5.2856
		c0,2.98177-2.41719,5.39896-5.39896,5.39896h-5.27249c-2.98176,0-5.39896-2.41719-5.39896-5.39896v-5.2856
		C23.44055,87.00555,25.85774,84.58836,28.83951,84.58836z"/>
	<path id="Rounded_Rectangle_1-19_1_" class="st3" d="M72.58376,104.91947h5.27235c2.98176,0,5.39896,2.41719,5.39896,5.39896
		v5.28424c0,2.98177-2.4172,5.39896-5.39896,5.39896h-5.27235c-2.98177,0-5.39896-2.41719-5.39896-5.39896v-5.28424
		C67.18479,107.33666,69.60199,104.91947,72.58376,104.91947z"/>
	<path id="Rounded_Rectangle_1-20_1_" class="st2" d="M59.7148,109.93916h5.27667c2.98176,0,5.39896,2.41719,5.39896,5.39896
		v5.28424c0,2.98177-2.4172,5.39896-5.39896,5.39896H59.7148c-2.98177,0-5.39896-2.41719-5.39896-5.39896v-5.28424
		C54.31584,112.35635,56.73303,109.93916,59.7148,109.93916z"/>
	<path id="Rounded_Rectangle_1-21_1_" class="st3" d="M40.19838,102.43867h5.27248c2.98177,0,5.39896,2.41719,5.39896,5.39896
		v5.28558c0,2.98177-2.41719,5.39896-5.39896,5.39896h-5.27248c-2.98177,0-5.39896-2.41719-5.39896-5.39896v-5.28558
		C34.79942,104.85586,37.21661,102.43867,40.19838,102.43867z"/>
	<path id="Rounded_Rectangle_1-22_1_" class="st4" d="M101.21092,41.44798h5.27235c2.98176,0,5.39896,2.41719,5.39896,5.39896
		v5.28423c0,2.98178-2.4172,5.39897-5.39896,5.39897h-5.27235c-2.98176,0-5.39896-2.41719-5.39896-5.39897v-5.28423
		C95.81196,43.86517,98.22916,41.44798,101.21092,41.44798z"/>
	<path id="Rounded_Rectangle_1-23_1_" class="st3" d="M15.72179,86.36866h5.27654c2.98176,0,5.39896,2.41719,5.39896,5.39896
		v5.28558c0,2.98177-2.4172,5.39896-5.39896,5.39896h-5.27654c-2.98176,0-5.39896-2.41719-5.39896-5.39896v-5.28558
		C10.32284,88.78585,12.74003,86.36866,15.72179,86.36866z"/>
	<path id="Rounded_Rectangle_1-24_1_" class="st2" d="M100.13113,89.69712h5.27235c2.98176,0,5.39896,2.41719,5.39896,5.39896
		v5.28424c0,2.98177-2.4172,5.39896-5.39896,5.39896h-5.27235c-2.98176,0-5.39896-2.41719-5.39896-5.39896v-5.28424
		C94.73216,92.11431,97.14937,89.69712,100.13113,89.69712z"/>
	<path id="Rounded_Rectangle_1-25_1_" class="st3" d="M13.9207,45.18946h5.27667c2.98176,0,5.39896,2.41719,5.39896,5.39896v5.28424
		c0,2.98177-2.4172,5.39896-5.39896,5.39896H13.9207c-2.98176,0-5.39896-2.41719-5.39896-5.39896v-5.28424
		C8.52174,47.60666,10.93894,45.18946,13.9207,45.18946z"/>
	<path id="Rounded_Rectangle_1-26_1_" class="st1" d="M27.55307,38.17028h5.27667c2.98177,0,5.39896,2.41719,5.39896,5.39896
		v5.28477c0,2.98177-2.41719,5.39896-5.39896,5.39896h-5.27667c-2.98176,0-5.39896-2.41719-5.39896-5.39896v-5.28477
		C22.15411,40.58747,24.57131,38.17028,27.55307,38.17028z"/>
	<path id="Rounded_Rectangle_1-27_1_" class="st2" d="M15.77241,27.17423h5.27235c2.98176,0,5.39896,2.4172,5.39896,5.39896v5.2845
		c0,2.98175-2.4172,5.39896-5.39896,5.39896h-5.27235c-2.98176,0-5.39896-2.41721-5.39896-5.39896v-5.2845
		C10.37345,29.59142,12.79065,27.17423,15.77241,27.17423z"/>
	<path id="Rounded_Rectangle_1-28_1_" class="st1" d="M33.52567,93.04581h5.27235c2.98177,0,5.39896,2.41719,5.39896,5.39896
		v5.28558c0,2.98177-2.41719,5.39896-5.39896,5.39896h-5.27235c-2.98176,0-5.39896-2.41719-5.39896-5.39896v-5.28558
		C28.12671,95.46301,30.5439,93.04581,33.52567,93.04581z"/>
	<path id="Rounded_Rectangle_1-29_1_" class="st4" d="M11.42787,35.20935h5.27249c2.98176,0,5.39896,2.4172,5.39896,5.39895v5.28572
		c0,2.98177-2.4172,5.39896-5.39896,5.39896h-5.27249c-2.98176,0-5.39896-2.41719-5.39896-5.39896V40.6083
		C6.02891,37.62655,8.44611,35.20935,11.42787,35.20935z"/>
	<path id="Rounded_Rectangle_1-30_1_" class="st2" d="M19.04971,59.19302h5.27235c2.98176,0,5.39896,2.41719,5.39896,5.39895
		v5.28423c0,2.98177-2.4172,5.39896-5.39896,5.39896h-5.27235c-2.98176,0-5.39896-2.41719-5.39896-5.39896v-5.28423
		C13.65075,61.61021,16.06795,59.19302,19.04971,59.19302z"/>
	<path id="Rounded_Rectangle_1-31_1_" class="st4" d="M20.85499,74.16566h5.27235c2.98176,0,5.39896,2.41719,5.39896,5.39896
		v5.28964c0,2.98177-2.4172,5.39896-5.39896,5.39896h-5.27235c-2.98176,0-5.39896-2.41719-5.39896-5.39896v-5.28964
		C15.45603,76.58285,17.87323,74.16566,20.85499,74.16566z"/>
	<path id="Rounded_Rectangle_1-32_1_" class="st2" d="M20.29404,95.79523h5.27654c2.98176,0,5.39896,2.41719,5.39896,5.39896
		v5.28558c0,2.98177-2.4172,5.39896-5.39896,5.39896h-5.27654c-2.98176,0-5.39896-2.41719-5.39896-5.39896v-5.28558
		C14.89508,98.21243,17.31228,95.79523,20.29404,95.79523z"/>
	<path id="Rounded_Rectangle_1-33_1_" class="st1" d="M14.39729,6.37136h5.27249c2.98176,0,5.39896,2.4172,5.39896,5.39896v5.28504
		c0,2.98176-2.4172,5.39896-5.39896,5.39896h-5.27249c-2.98176,0-5.39896-2.4172-5.39896-5.39896v-5.28504
		C8.99834,8.78855,11.41553,6.37136,14.39729,6.37136z"/>
	<path id="Rounded_Rectangle_1-34_1_" class="st2" d="M89.05895,53.22041h5.27667c2.98176,0,5.39896,2.41719,5.39896,5.39897
		v5.28423c0,2.98176-2.4172,5.39895-5.39896,5.39895h-5.27667c-2.98176,0-5.39896-2.41719-5.39896-5.39895v-5.28423
		C83.65999,55.6376,86.07719,53.22041,89.05895,53.22041z"/>
	<path id="Rounded_Rectangle_1-35_1_" class="st2" d="M105.12084,19.88131h5.27667c2.98176,0,5.39896,2.4172,5.39896,5.39896
		v5.28517c0,2.98176-2.4172,5.39896-5.39896,5.39896h-5.27667c-2.98176,0-5.39896-2.4172-5.39896-5.39896v-5.28517
		C99.72189,22.2985,102.13908,19.88131,105.12084,19.88131z"/>
	<path id="Rounded_Rectangle_1-36_1_" class="st3" d="M90.12618,90.25321h5.27235c2.98176,0,5.39896,2.41719,5.39896,5.39896
		v5.28558c0,2.98177-2.4172,5.39896-5.39896,5.39896h-5.27235c-2.98176,0-5.39896-2.41719-5.39896-5.39896v-5.28558
		C84.72722,92.6704,87.14442,90.25321,90.12618,90.25321z"/>
	<path id="Rounded_Rectangle_1-37_1_" class="st3" d="M98.71809,78.3296h5.27235c2.98177,0,5.39896,2.41719,5.39896,5.39897v5.28423
		c0,2.98177-2.4172,5.39896-5.39896,5.39896h-5.27235c-2.98177,0-5.39896-2.41719-5.39896-5.39896v-5.28423
		C93.31912,80.74679,95.73632,78.3296,98.71809,78.3296z"/>
	<path id="Rounded_Rectangle_1-38_1_" class="st3" d="M103.06681,11.17549h5.27235c2.98176,0,5.39896,2.4172,5.39896,5.39896
		v5.28517c0,2.98177-2.4172,5.39896-5.39896,5.39896h-5.27235c-2.98177,0-5.39896-2.4172-5.39896-5.39896v-5.28517
		C97.66785,13.59268,100.08505,11.17549,103.06681,11.17549z"/>
	<path id="Rounded_Rectangle_1-39_1_" class="st1" d="M85.13214,76.24967h5.27235c2.98177,0,5.39896,2.41719,5.39896,5.39896
		v5.28558c0,2.98177-2.4172,5.39896-5.39896,5.39896h-5.27235c-2.98176,0-5.39896-2.41719-5.39896-5.39896v-5.28558
		C79.73319,78.66686,82.15038,76.24967,85.13214,76.24967z"/>
	<path id="Rounded_Rectangle_1-40_1_" class="st3" d="M100.93247,62.24612h5.27667c2.98176,0,5.39896,2.41719,5.39896,5.39895
		v5.28558c0,2.98178-2.4172,5.39896-5.39896,5.39896h-5.27667c-2.98176,0-5.39896-2.41718-5.39896-5.39896v-5.28558
		C95.53351,64.66331,97.95071,62.24612,100.93247,62.24612z"/>
	<path id="Rounded_Rectangle_1-41_1_" class="st1" d="M92.81297,23.25566h5.27235c2.98176,0,5.39896,2.4172,5.39896,5.39896v5.28477
		c0,2.98176-2.4172,5.39896-5.39896,5.39896h-5.27235c-2.98176,0-5.39896-2.41721-5.39896-5.39896v-5.28477
		C87.41402,25.67286,89.83122,23.25566,92.81297,23.25566z"/>
	<path id="Rounded_Rectangle_1-42_1_" class="st3" d="M26.25394,49.48703h5.27235c2.98176,0,5.39896,2.41719,5.39896,5.39897
		v5.28558c0,2.98177-2.41719,5.39895-5.39896,5.39895h-5.27235c-2.98176,0-5.39896-2.41719-5.39896-5.39895V54.886
		C20.85499,51.90422,23.27218,49.48703,26.25394,49.48703z"/>
	<path id="Rounded_Rectangle_1-43_1_" class="st3" d="M12.81135,70.28516h5.27667c2.98176,0,5.39896,2.41719,5.39896,5.39896
		v5.28558c0,2.98177-2.4172,5.39896-5.39896,5.39896h-5.27667c-2.98176,0-5.39896-2.41719-5.39896-5.39896v-5.28558
		C7.41239,72.70235,9.82959,70.28516,12.81135,70.28516z"/>
	<path id="Rounded_Rectangle_1-44_1_" class="st4" d="M84.45728,104.8682h5.27235c2.98176,0,5.39896,2.41719,5.39896,5.39896
		v5.28558c0,2.98177-2.4172,5.39896-5.39896,5.39896h-5.27235c-2.98176,0-5.39896-2.41719-5.39896-5.39896v-5.28558
		C79.05832,107.28539,81.47552,104.8682,84.45728,104.8682z"/>
	<path id="Rounded_Rectangle_1-45_1_" class="st3" d="M84.03117,114.33796h5.27248c2.98176,0,5.39896,2.41719,5.39896,5.39896
		v5.28558c0,2.98177-2.4172,5.39896-5.39896,5.39896h-5.27248c-2.98176,0-5.39896-2.41719-5.39896-5.39896v-5.28558
		C78.63221,116.75515,81.04941,114.33796,84.03117,114.33796z"/>
	<path id="Rounded_Rectangle_1-46_1_" class="st4" d="M38.74741,112.339h5.27248c2.98177,0,5.39896,2.41719,5.39896,5.39896v5.28424
		c0,2.98177-2.41719,5.39896-5.39896,5.39896h-5.27248c-2.98177,0-5.39896-2.4172-5.39896-5.39896v-5.28424
		C33.34845,114.75619,35.76564,112.339,38.74741,112.339z"/>
	<path id="Rounded_Rectangle_1-47_1_" class="st3" d="M48.68068,106.31916h5.27249c2.98176,0,5.39896,2.41719,5.39896,5.39897
		v5.28558c0,2.98177-2.41719,5.39896-5.39896,5.39896h-5.27249c-2.98176,0-5.39896-2.41719-5.39896-5.39896v-5.28558
		C43.28172,108.73635,45.69891,106.31916,48.68068,106.31916z"/>
</g>
</svg>
