<?xml version="1.0" encoding="utf-8"?>
<!-- Generator: Adobe Illustrator 25.4.1, SVG Export Plug-In . SVG Version: 6.00 Build 0)  -->
<svg version="1.1" id="Layer_1" xmlns="http://www.w3.org/2000/svg" xmlns:xlink="http://www.w3.org/1999/xlink" x="0px" y="0px"
	 viewBox="0 0 232.1 232.1" style="enable-background:new 0 0 232.1 232.1;" xml:space="preserve">
<style type="text/css">
	.st0{fill:none;}
	.st1{opacity:0.46;}
	.st2{fill:#FFFFFF;}
	.st3{opacity:0.37;}
	.st4{opacity:0.73;}
</style>
<g id="Layer_1_00000003803276727897884950000015713702086424007580_">
	<path class="st0" d="M53.4,68.7L53.4,68.7l-0.1,4.4c0,0.1,0,0.2,0,0.2s0.1,0,0.1,0.1v-4C53.4,69.2,53.4,68.9,53.4,68.7z"/>
	<path class="st0" d="M117.1,174.5c-0.1,0.2-0.3,0.4-0.4,0.6h1.2C117.6,174.9,117.4,174.7,117.1,174.5z"/>
	<g class="st1">
		<path class="st2" d="M195.3,87c-1.4,2.7-4.3,4.6-7.6,4.6h-8.4c-0.9,0-1.8-0.1-2.6-0.4c0-0.1-0.1-0.2-0.1-0.3
			c-0.5-1.7-1.6-3.2-3-4.3c-0.8-0.6-1.7-1.1-2.6-1.4c-0.8-0.3-1.7-0.4-2.6-0.4H160c-2.7,0-5.1,1.2-6.6,3.1c-1.2,1.5-2,3.4-2,5.5v8.4
			c0,4.8,3.9,8.6,8.6,8.6h8.4c0.7,0,1.3-0.1,1.9-0.2v-2.4c0-3.6,2.1-6.6,5.2-7.9c0.5-0.2,1-0.4,1.5-0.5c0.6-0.1,1.2-0.2,1.9-0.2h8.4
			c4.7,0,8.6,3.8,8.6,8.6v3.6c3.1-1.3,5.2-4.4,5.2-7.9v-8.4C201.1,91.3,198.7,88.1,195.3,87z"/>
		<path class="st2" d="M74.2,14.5h-8.4c-3.4,0-6.3,2-7.7,4.8v5.4c3.5,1.1,6,4.3,6,8.2v7c0.6,0.1,1.1,0.2,1.7,0.2h8.4
			c4.8,0,8.6-3.9,8.6-8.6v-8.4C82.8,18.3,78.9,14.5,74.2,14.5z"/>
		<path class="st2" d="M153.1,152.4c0-2,0.7-3.8,1.8-5.3h-1.2c-2,0-3.8-0.7-5.3-1.8h-2.6c-4.6,0-8.4,3.6-8.6,8.2c0,0.1,0,0.3,0,0.4
			v8.4c0,1.8,0.5,3.4,1.5,4.8h1.2h2.2c1.9,0,3.8,0.7,5.2,1.8c1.5-1.2,3.3-1.9,5.3-1.9h3.1c-1.6-1.6-2.6-3.7-2.6-6.2L153.1,152.4
			L153.1,152.4z"/>
		<path class="st2" d="M126.6,176.7c-0.5-0.3-1-0.6-1.5-0.8c-1.1-0.5-2.3-0.8-3.5-0.8h-3.7h-1.2c0.1-0.2,0.3-0.4,0.4-0.6
			c0.7-1.3,1.2-2.7,1.2-4.3v-8.4c0-2.6-1.1-4.8-2.8-6.4c-1.5-1.4-3.6-2.2-5.8-2.2h-8.4c-4.7,0-8.6,3.9-8.6,8.6v1.7
			c2.9,0.7,5.3,2.9,6.1,5.8h5.3c3.8,0,7,2.4,8.1,5.9c0.3,0.9,0.5,1.8,0.5,2.7v0.4v8c0,1.7-0.5,3.3-1.4,4.7c-1.3,2-3.5,3.4-6,3.8
			c-0.1,0-0.2,0-0.3,0c0.1,0.3,0.3,0.7,0.4,1c1.4,2.9,4.4,4.9,7.7,4.9h8.4c0.9,0,1.9-0.2,2.7-0.4c1.5-0.5,2.8-1.4,3.8-2.5
			c1.3-1.5,2.1-3.5,2.1-5.6V192v-0.4v-7.8C130.2,180.8,128.8,178.3,126.6,176.7z"/>
		<path class="st2" d="M191.7,145c-1.3,3.1-4.3,5.4-8,5.4h-5.2c0.2,0.6,0.2,1.3,0.2,2v8.4c0,1.1-0.2,2.2-0.6,3.2
			c-0.7,1.6-1.8,3-3.3,4c0.9,0.3,1.8,0.5,2.8,0.5h6.6h1.8c4.8,0,8.6-3.9,8.6-8.6v-8.4C194.6,148.9,193.5,146.6,191.7,145z"/>
		<path class="st2" d="M53.3,64.7v4h0.1c2.7-0.5,4.8-2.3,6-4.7c0.5-0.9,0.8-2,0.8-3.1c0-0.2,0-0.5,0-0.7v-8.4c0-1.1-0.2-2.1-0.6-3.1
			c-0.1-0.3-0.2-0.5-0.3-0.7c-1.4-2.8-4.3-4.8-7.7-4.8h-8.4c-1.5,0-3,0.4-4.2,1.1c-2.6,1.5-4.4,4.3-4.4,7.5v4.5
			c0.5-0.1,1.1-0.2,1.6-0.2h8.4C49.4,56.1,53.3,59.9,53.3,64.7z"/>
		<path class="st2" d="M55.1,118.1h0.5h4.1c0.7,0,1.4,0.1,2.1,0.3c2.2-1.6,3.7-4.2,3.7-7.1v-5v-1.9h-5.6c-4.2,0-7.8-3.1-8.5-7.2
			c-0.1-0.4-0.1-0.9-0.1-1.4v-1.5h-2.8c-2.8,0-5.2,1.3-6.8,3.3c-1.1,1.5-1.8,3.3-1.8,5.3v8.4c0,0.2,0,0.5,0,0.7h7
			C50.7,112,54.1,114.5,55.1,118.1z"/>
		<path class="st2" d="M63.4,153.9c-1-0.6-2.1-1-3.2-1.2c-0.4-0.1-0.9-0.1-1.3-0.1h-3.4h-5c-4.8,0-8.6,3.8-8.6,8.6l0,0v1.9v6.5
			c0,4.8,3.9,8.6,8.6,8.6h1.1h7.3c2.3,0,4.4-0.9,5.9-2.4c1-0.9,1.7-2.1,2.2-3.3c0.3-0.9,0.5-1.9,0.5-2.9v-1.1v-7.3
			c0-0.3,0-0.6,0-0.9C67.2,157.6,65.6,155.3,63.4,153.9z"/>
		<path class="st2" d="M199.3,33.6v1.2c0,4.7-3.8,8.6-8.6,8.6h-8.1c0.2,0.7,0.3,1.5,0.3,2.3v8.4c0,0.9-0.1,1.8-0.4,2.6
			c0.9,0.4,2,0.6,3,0.6h8.4c4.8,0,8.6-3.9,8.6-8.6v-8.4C202.5,37.6,201.2,35.2,199.3,33.6z"/>
	</g>
	<g class="st3">
		<path class="st2" d="M143.4,199.1v-6.5c-0.4,0.1-0.9,0.1-1.3,0.1h-8.4c-1.2,0-2.4-0.3-3.5-0.8v0.2c0,2.1-0.8,4.1-2.1,5.6
			c0.1,0.6,0.2,1.2,0.2,1.9v8.4c0,2.1-0.8,4.1-2,5.6c1.6,1.9,4,3.1,6.6,3.1h8.4c4.8,0,8.6-3.9,8.6-8.6v-0.7
			C146.2,206.5,143.4,203.2,143.4,199.1z"/>
		<path class="st2" d="M41.9,169.6v-6.5c-0.5-0.1-0.9-0.2-1.3-0.3c-0.9,1.3-1.4,2.9-1.4,4.6v8.4c0,4.8,3.9,8.6,8.6,8.6h3.8v-6.2
			h-1.1C45.8,178.2,41.9,174.4,41.9,169.6z"/>
		<path class="st2" d="M133.7,167.1h5c-0.9-1.4-1.5-3-1.5-4.8v-8.4c0-0.1,0-0.3,0-0.4c-1.6-1.5-3.6-2.4-5.9-2.4h-8.4
			c-3.2,0-6,1.8-7.4,4.3c1.7,1.6,2.8,3.8,2.8,6.4v8.4c0,1.6-0.4,3-1.2,4.3c0.2,0.2,0.5,0.4,0.8,0.6h3.7c1.2,0,2.4,0.3,3.5,0.8v-0.2
			C125.1,171,129,167.1,133.7,167.1z"/>
		<path class="st2" d="M76.2,84.1c1.7-1.6,2.8-3.8,2.8-6.3v-8.4c0-0.4,0-0.9-0.1-1.3c-0.6-4.2-4.2-7.3-8.5-7.3H62
			c-0.6,0-1.2,0.1-1.7,0.2c-0.1,1.1-0.4,2.1-0.8,3.1c-1.1,2.4-3.3,4.1-6,4.7c0,0.2,0,0.4,0,0.7v4v4.4c0,1.2,0.2,2.3,0.7,3.3
			c0.9-0.8,1.9-1.5,3.1-1.9c0.9-0.3,1.8-0.5,2.7-0.5h8.4C71.9,78.8,74.9,81,76.2,84.1z"/>
		<path class="st2" d="M81.1,148.3c-0.4-0.1-0.8-0.1-1.2-0.1h-8.4c-3.7,0-6.9,2.4-8.1,5.7c2.2,1.4,3.7,3.7,4,6.4c0,0.3,0,0.6,0,0.9
			v7.3v1.1c0,1-0.2,2-0.5,2.9c1.3,0.8,2.9,1.3,4.5,1.3h2.1h2.9h3.4c4.8,0,8.6-3.9,8.6-8.6v-2v-6.4C88.5,152.4,85.2,148.9,81.1,148.3
			z"/>
		<path class="st2" d="M49.5,35.8c3.4,0,6.3-2,7.7-4.8c0.6-1.2,0.9-2.4,0.9-3.8v-2.5v-5.4v-0.5c0-4.8-3.9-8.6-8.6-8.6h-8.4
			c-4.8,0-8.6,3.8-8.6,8.6v8.4c0,3.9,2.5,7.1,6,8.2c0.8,0.3,1.7,0.4,2.6,0.4C41.1,35.8,49.5,35.8,49.5,35.8z"/>
		<path class="st2" d="M162.1,121.5h-8.4c-4.7,0-8.6,3.8-8.6,8.6v8.4c0,2.8,1.3,5.2,3.3,6.8c1.5,1.1,3.3,1.8,5.3,1.8h1.2h4.5h2.6
			c2,0,3.9-0.7,5.3-1.9c0.5-0.4,1-0.9,1.4-1.4c1.1-1.5,1.8-3.3,1.8-5.3v-8.4c0-1.2-0.3-2.4-0.7-3.4
			C168.6,123.6,165.6,121.5,162.1,121.5z"/>
		<path class="st2" d="M182.6,43.4c-0.7-2.7-2.7-4.8-5.3-5.7c-0.9-0.4-2-0.6-3-0.6H174h-8.1c-4.7,0-8.6,3.8-8.6,8.6v8.4
			c0,4.8,3.9,8.6,8.6,8.6h8.4c3.9,0,7.1-2.5,8.2-6c0.3-0.8,0.4-1.7,0.4-2.6v-8.4C182.9,44.9,182.8,44.1,182.6,43.4z"/>
	</g>
	<g class="st4">
		<path class="st2" d="M87.5,188.8c-0.1-0.3-0.1-0.5-0.2-0.8c-0.1-0.5-0.2-1.1-0.2-1.7v-7.4h-7.3c-0.9,0-1.8,0.1-2.6,0.4
			c-1.3,0.4-2.4,1.1-3.3,2c-0.1,0.1-0.1,0.1-0.2,0.2c-1.5,1.6-2.5,3.7-2.5,6v6.2v2.2c0,4.8,3.9,8.6,8.6,8.6h0.1h1.6h6.7
			c4.8,0,8.6-3.9,8.6-8.6v-1h-1.1C91.9,194.9,88.5,192.4,87.5,188.8z"/>
		<path class="st2" d="M187.7,66h-8.4c-2,0-3.8,0.7-5.2,1.8c-2,1.6-3.4,4-3.4,6.8V83c0,0.8,0.1,1.5,0.3,2.2c1,0.3,1.8,0.8,2.6,1.4
			c1.4,1.1,2.5,2.6,3,4.3c0,0.1,0.1,0.2,0.1,0.3c0.8,0.3,1.7,0.4,2.6,0.4h8.4c3.3,0,6.2-1.9,7.6-4.6c0.6-1.2,1-2.6,1-4v-8.4
			C196.3,69.8,192.4,66,187.7,66z"/>
		<path class="st2" d="M53.3,73.3c0-0.1,0-0.2,0-0.2v-4.4v-4c0-4.8-3.9-8.6-8.6-8.6h-8.4c-0.5,0-1.1,0.1-1.6,0.2c-4,0.7-7,4.2-7,8.4
			v8.4c0,3.1,1.6,5.7,4,7.3c1.3,0.8,2.9,1.3,4.6,1.3h8.4C49.4,81.7,53.2,77.9,53.3,73.3z"/>
		<path class="st2" d="M61.8,118.4c-0.7-0.2-1.4-0.3-2.1-0.3h-4.1h-0.5c0.2,0.6,0.3,1.2,0.3,1.8c0,0.2,0,0.5,0,0.7v8.4
			c0,4.7-3.8,8.6-8.6,8.6h-3.6h-0.1l0,0c1.1,3.6,4.4,6.1,8.2,6.1h4.2h4.2h0.1c4.7-0.1,8.5-3.9,8.5-8.6v-0.4v-2.8v-5.2
			C68.3,122.6,65.5,119.3,61.8,118.4z"/>
		<path class="st2" d="M161.6,167c-0.1,0-0.1,0-0.2,0c-0.1,0-0.3,0-0.4,0h-5.3h-3.1c-2,0-3.8,0.7-5.3,1.9c-0.7,0.6-1.4,1.3-1.9,2
			c-0.9,1.4-1.4,3-1.4,4.7v8.4c0,0.9,0.1,1.8,0.4,2.6c1.2-2.3,3.5-4,6.3-4.4c0.4-0.1,0.9-0.1,1.3-0.1h7.7h0.7c3.8,0,7.1,2.5,8.2,6
			c0.6-1.2,1-2.6,1-4.1v-8.4c0-2.5-1-4.6-2.6-6.2C165.5,168,163.6,167.2,161.6,167z"/>
	</g>
	<g>
		<path class="st2" d="M116.8,175.1h1.2c-0.3-0.2-0.5-0.4-0.8-0.6C117,174.7,116.9,174.9,116.8,175.1z"/>
		<path class="st2" d="M53.3,73.1c0,0.1,0,0.2,0,0.2s0.1,0,0.1,0.1v-4c0-0.2,0-0.5,0-0.7h-0.1V73.1z"/>
		<path class="st2" d="M213.7,15c0-9.6-3-15-12.8-15c0,0-36.5,0-48.7,0c-9,0-12.4,6.2-12.8,13.7l-0.1-0.3c0,0,0,75.5,0,100.2
			c0,3.9-0.2,7.5-0.8,10.8c-1,5.3-3.2,9.9-7.1,13c-0.1,0.1-0.1,0.1-0.2,0.2c-0.1,0.1-0.3,0.2-0.4,0.3c-3.5,2.4-8.3,3.7-14.8,3.8
			c-6.6-0.1-11.4-1.4-14.8-3.8c-0.1-0.1-0.3-0.2-0.4-0.3s-0.2-0.1-0.2-0.2c-4-3.1-6.1-7.7-7.1-13c-0.6-3.3-0.8-6.9-0.8-10.8
			l-0.1,0.1v-0.1c0-24.6,0-94.9,0-98.5c0-8-3.2-15-12.8-15c-12.2,0-48.7,0-48.7,0c-9.7,0-12.8,5.4-12.8,15c0,0,0,92.4,0,129.8
			c0,47,28.8,87.2,96.5,87.2c0.4,0,0.8,0,1.3,0c0.4,0,0.8,0,1.3,0c67.7,0,96.5-40.2,96.5-87.2C213.7,107.4,213.7,15,213.7,15z
			 M201.1,103.5c0,3.5-2.1,6.6-5.2,7.9v4.8c0,4.7-3.8,8.6-8.6,8.6h-3.6c4.7,0,8.6,3.8,8.6,8.6v8.4c0,1.1-0.2,2.2-0.6,3.2
			c1.8,1.6,2.9,3.9,2.9,6.5v8.4c0,4.7-3.8,8.6-8.6,8.6h-1.8c0.6,1.2,1,2.5,1,4v8.4c0,4.7-3.8,8.6-8.6,8.6h-7.7
			c0.1,0.4,0.1,0.8,0.1,1.2v8.4c0,4.7-3.8,8.6-8.6,8.6H152c-0.7,0-1.4-0.1-2.1-0.3v0.7c0,4.7-3.8,8.6-8.6,8.6h-8.4
			c-2.7,0-5.1-1.2-6.6-3.1c-1.6,1.9-3.9,3-6.6,3h-8.4c-3.7,0-7-2.4-8.1-5.8c-1.6,1.7-3.8,2.7-6.3,2.7h-8.4c-4.4,0-8.1-3.4-8.6-7.8
			c-1.3,0.7-2.7,1.2-4.3,1.2h-8.4c-4.7,0-8.6-3.8-8.6-8.6v-4.4c-4-0.7-7-4.2-7-8.4v-1.1h-3.8c-4.7,0-8.6-3.8-8.6-8.6v-8.4
			c0-1.7,0.5-3.3,1.4-4.6c-3.4-1.1-6-4.3-6-8.2v-8.4c0-4.8,3.7-8.5,8.5-8.6l0,0h-4.6c-4.7,0-8.6-3.8-8.6-8.6v-8.4
			c0-4.8,3.9-8.6,8.6-8.6h1.4c0-0.2,0-0.5,0-0.7v-8.4c0-2,0.7-3.8,1.8-5.3h-1.4c-4.7,0-8.6-3.8-8.6-8.6v-8.4c0-0.1,0-0.2,0-0.2
			c-2.4-1.5-4-4.2-4-7.3v-8.4c0-4.2,3-7.7,7-8.4v-4.4c0-3.2,1.8-6,4.4-7.5c-0.4-1-0.6-2-0.6-3.1v-5.9c-3.5-1.1-6-4.3-6-8.2v-8.4
			c0-4.8,3.8-8.6,8.6-8.6h8.4c4.7,0,8.6,3.8,8.6,8.6v0.5c1.4-2.8,4.3-4.8,7.7-4.8h8.4c4.7,0,8.6,3.8,8.6,8.6v8.4
			c0,4.7-3.8,8.6-8.6,8.6h-8.4c-0.6,0-1.1-0.1-1.7-0.2v1.4c0,0.9-0.1,1.8-0.4,2.6c1.1-0.5,2.2-0.7,3.4-0.7h8.4
			c4.7,0,8.6,3.8,8.6,8.6v8.4c0,3.5-2.1,6.6-5.2,7.9C79,68.5,79,69,79,69.4v8.4c0,2.5-1.1,4.7-2.8,6.3c0.4,1,0.7,2.1,0.7,3.3v8.4
			c0,4.7-3.8,8.6-8.6,8.6h-2.8v1.9h7.1c4.7,0,8.6,3.8,8.6,8.6v8.4c0,4.7-3.8,8.6-8.6,8.6h-4.3v2.8h4.2c4.7,0,8.6,3.8,8.6,8.6v5
			c4.1,0.6,7.4,4.1,7.4,8.5v6.4h2.1c0.7,0,1.4,0.1,2.1,0.3v-1.7c0-4.7,3.9-8.6,8.6-8.6h8.4c2.2,0,4.2,0.8,5.8,2.2
			c1.5-2.6,4.2-4.3,7.4-4.3h8.4c2.3,0,4.4,0.9,5.9,2.4c0.2-4.6,4-8.2,8.6-8.2h2.6c-2-1.6-3.3-4-3.3-6.8v-8.4c0-4.8,3.9-8.6,8.6-8.6
			h8.4c3.5,0,6.5,2.1,7.9,5.2c1.5-1.2,3.3-1.9,5.3-1.9h3.6c-4.7,0-8.6-3.8-8.6-8.6v-6c-0.6,0.1-1.2,0.2-1.9,0.2H160
			c-4.7,0-8.6-3.8-8.6-8.6v-8.4c0-2.1,0.7-4,2-5.5c-2-1.6-3.4-4-3.4-6.8v-8.4c0-4.7,3.8-8.6,8.6-8.6h8.4c2.9,0,5.5,1.5,7.1,3.7
			c1.5-1.1,3.3-1.8,5.2-1.8h8.4c4.7,0,8.6,3.8,8.6,8.6V83c0,1.4-0.4,2.8-1,4c3.3,1.2,5.8,4.3,5.8,8.1V103.5z M202.5,48.7
			c0,4.7-3.8,8.6-8.6,8.6h-8.4c-1.1,0-2.1-0.2-3-0.6c-1.1,3.4-4.3,6-8.2,6h-8.4c-4.7,0-8.6-3.8-8.6-8.6v-8.4c0-4.8,3.9-8.6,8.6-8.6
			h8.1c-0.2-0.7-0.3-1.5-0.3-2.3v-8.4c0-4.7,3.8-8.6,8.6-8.6h8.4c4.7,0,8.6,3.8,8.6,8.6v7.2c1.9,1.6,3.2,4,3.2,6.7L202.5,48.7
			L202.5,48.7z"/>
	</g>
</g>
</svg>
