<?xml version="1.0" standalone="no"?>
<!DOCTYPE svg PUBLIC "-//W3C//DTD SVG 20010904//EN"
 "http://www.w3.org/TR/2001/REC-SVG-20010904/DTD/svg10.dtd">
<svg version="1.0" xmlns="http://www.w3.org/2000/svg"
 width="512.000000pt" height="512.000000pt" viewBox="0 0 512.000000 512.000000"
 preserveAspectRatio="xMidYMid meet">

<g transform="translate(0.000000,512.000000) scale(0.100000,-0.100000)"
fill="#000000" stroke="none">
<path d="M2455 5106 c-83 -20 -147 -56 -211 -120 -33 -34 -70 -82 -83 -109
-52 -107 -51 -91 -51 -1009 l0 -858 -857 0 c-919 0 -903 1 -1010 -51 -66 -31
-164 -131 -196 -201 -84 -177 -49 -377 87 -513 66 -65 138 -105 224 -124 37
-8 307 -11 902 -11 l850 0 0 -857 c0 -919 -1 -903 51 -1010 32 -66 131 -163
202 -196 178 -83 376 -50 513 87 65 66 105 138 123 224 8 37 11 316 11 902 l0
850 850 0 c586 0 865 3 902 11 86 18 158 58 224 123 136 137 170 337 87 514
-52 110 -181 213 -304 241 -28 7 -360 11 -901 11 l-858 0 0 850 c0 586 -3 865
-11 902 -18 86 -58 158 -123 224 -114 114 -267 158 -421 120z"/>
</g>
</svg>
