<?xml version="1.0" standalone="no"?>
<!DOCTYPE svg PUBLIC "-//W3C//DTD SVG 20010904//EN"
 "http://www.w3.org/TR/2001/REC-SVG-20010904/DTD/svg10.dtd">
<svg version="1.0" xmlns="http://www.w3.org/2000/svg"
 width="256.000000pt" height="256.000000pt" viewBox="0 0 256.000000 256.000000"
 preserveAspectRatio="xMidYMid meet">

<g transform="translate(0.000000,256.000000) scale(0.100000,-0.100000)"
fill="#000000" stroke="none">
<path fill='#ff0000' d="M878 2441 c-194 -62 -318 -244 -318 -468 l0 -43 80 0 80 0 0 73 c0
122 60 219 173 279 42 23 45 23 462 23 l420 0 5 -150 c6 -174 20 -216 100
-295 82 -83 169 -109 373 -110 l88 0 -3 -642 -3 -643 -29 -53 c-33 -60 -76
-101 -139 -134 l-42 -23 -595 0 -595 0 -51 27 c-59 31 -119 94 -145 152 -10
23 -21 78 -25 122 l-6 79 -74 0 -74 0 0 -56 c0 -174 77 -322 212 -409 110 -72
109 -71 783 -68 l600 3 68 32 c76 36 166 116 204 181 14 23 34 70 44 103 18
57 19 102 19 707 0 624 -1 647 -20 687 -22 45 -587 604 -637 630 -23 12 -100
15 -463 14 -394 0 -440 -2 -492 -18z"/>
<path fill='#ff0000' d="M491 1834 c-129 -35 -273 -141 -337 -249 -170 -291 -65 -664 229
-809 114 -56 227 -73 346 -53 189 32 340 142 419 308 51 105 67 185 59 292
-18 242 -181 442 -416 511 -68 20 -226 20 -300 0z m160 -454 c5 0 50 38 101
85 l91 86 34 -32 c18 -18 33 -37 33 -41 0 -4 -38 -49 -85 -100 -47 -50 -85
-94 -85 -98 0 -3 38 -47 85 -97 47 -50 85 -95 85 -100 0 -11 -53 -63 -64 -63
-5 0 -51 39 -104 87 l-94 87 -20 -24 c-11 -14 -52 -58 -90 -99 l-70 -73 -55
53 -54 54 33 29 c18 16 61 56 96 89 l63 60 -96 90 -96 90 53 54 53 54 88 -96
c49 -52 93 -95 98 -95z"/>
</g>
</svg>
