<?xml version="1.0" standalone="no"?>
<!DOCTYPE svg PUBLIC "-//W3C//DTD SVG 20010904//EN"
 "http://www.w3.org/TR/2001/REC-SVG-20010904/DTD/svg10.dtd">
<svg version="1.0" xmlns="http://www.w3.org/2000/svg"
 width="438.000000pt" height="512.000000pt" viewBox="0 0 438.000000 512.000000"
 preserveAspectRatio="xMidYMid meet">

<g transform="translate(0.000000,512.000000) scale(0.100000,-0.100000)"
fill="#000000" stroke="none">
<path fill='#008000' d="M1229 5106 c-59 -21 -96 -53 -123 -108 -26 -51 -26 -56 -26 -270 l0
-218 -441 0 c-302 0 -454 -4 -480 -11 -50 -16 -105 -61 -132 -112 l-22 -42 0
-2090 0 -2090 22 -42 c28 -52 83 -98 137 -112 30 -9 437 -11 1512 -9 l1471 3
48 30 c36 22 57 45 77 84 28 53 28 53 28 257 l0 203 458 3 c424 3 460 4 492
22 49 26 79 55 103 101 l22 40 3 1467 c2 1381 1 1469 -15 1511 -15 36 -147
174 -689 721 l-672 676 -868 0 c-684 -1 -877 -4 -905 -14z m1621 -754 c0 -585
-1 -579 73 -655 84 -86 51 -82 665 -85 l542 -3 0 -1389 0 -1390 -415 0 -415 0
0 1128 c0 1107 -1 1128 -21 1171 -15 34 -184 209 -686 713 l-667 668 -298 0
-298 0 0 180 0 180 760 0 760 0 0 -518z m-1080 -600 c0 -577 0 -580 73 -659
22 -24 59 -54 82 -66 39 -22 48 -22 583 -25 l542 -3 0 -1374 0 -1375 -1400 0
-1400 0 0 2005 0 2005 760 0 760 0 0 -508z"/>
</g>
</svg>
